<svg id="Camada_1" data-name="Camada 1" xmlns="http://www.w3.org/2000/svg" viewBox="0 0 112.67 86.88"><defs><style>.cls-1{fill:#fff;}</style></defs><path class="cls-1" d="M101.24,87H80.15V51.66L56.56,69.38,33,51.66V87H11.88A11.67,11.67,0,0,1,.22,75.34V15.4A15.18,15.18,0,0,1,24.55,3.19l32,24,32-24A15.19,15.19,0,0,1,112.89,15.4V75.34A11.67,11.67,0,0,1,101.24,87ZM89.4,77.75h11.84a2.41,2.41,0,0,0,2.4-2.41V15.4a5.91,5.91,0,0,0-3.29-5.4,5.83,5.83,0,0,0-6.24.59L56.56,38.76,19,10.59A5.94,5.94,0,0,0,9.47,15.4V75.34a2.41,2.41,0,0,0,2.41,2.41H23.72V33.15L56.56,57.81,89.4,33.15Z" transform="translate(-0.22 -0.12)"/></svg>